#N canvas 961 63 958 1016 10;
#X obj 538 222 adc~ 1 2 3 4 5 6;
#X obj 509 329 env~;
#X obj 580 328 env~;
#X obj 652 327 env~;
#X obj 580 402 clip 0 1;
#X obj 652 464 * 100;
#X obj 652 402 clip 0 1;
#X obj 652 553 ctlout 7 3;
#X obj 580 465 * 100;
#X obj 579 577 ctlout 7 5;
#X obj 580 516 -;
#X obj 509 515 -;
#X obj 509 402 clip 0 1;
#X obj 509 464 * 100;
#X obj 509 553 ctlout 7 6;
#X obj 762 447 hsl 128 15 0 1 0 0 empty empty empty -2 -8 0 10 -262144
-1 -1 1383 1;
#X obj 761 564 *;
#X obj 776 522 >;
#X obj 761 543 expr ($f1 - $f2) / (1-$f2);
#X obj 790 498 nbx 8 14 0 1 0 1 empty empty empty 0 -8 0 10 -262144
-1 -1 0.5 256;
#X floatatom 761 478 5 0 0 0 - - -, f 5;
#X msg 364 511 3= FX 5= Mon 6= Master;
#X obj 580 366 /;
#X obj 652 365 /;
#X msg 407 223 1/2= Main 3/4= Mon 5/6= FX;
#X connect 0 0 1 0;
#X connect 0 1 1 0;
#X connect 0 2 2 0;
#X connect 0 3 2 0;
#X connect 0 4 3 0;
#X connect 0 5 3 0;
#X connect 1 0 12 0;
#X connect 1 0 22 1;
#X connect 1 0 23 1;
#X connect 2 0 22 0;
#X connect 3 0 23 0;
#X connect 4 0 8 0;
#X connect 5 0 10 1;
#X connect 5 0 11 1;
#X connect 5 0 7 0;
#X connect 6 0 15 0;
#X connect 8 0 10 0;
#X connect 10 0 9 0;
#X connect 11 0 14 0;
#X connect 12 0 13 0;
#X connect 13 0 11 0;
#X connect 15 0 20 0;
#X connect 16 0 5 0;
#X connect 17 0 16 1;
#X connect 18 0 16 0;
#X connect 19 0 17 1;
#X connect 19 0 18 1;
#X connect 20 0 18 0;
#X connect 20 0 17 0;
#X connect 22 0 4 0;
#X connect 23 0 6 0;
