#N canvas 2 66 1916 986 10;
#X obj 571 369 hsl 128 15 0 1 0 0 empty empty empty -2 -8 0 10 -262144
-1 -1 0 1;
#X floatatom 568 520 5 0 0 0 - - -, f 5;
#X obj 568 485 *;
#X obj 583 443 >;
#X obj 568 464 expr ($f1 - $f2) / (1-$f2);
#X obj 598 420 nbx 8 14 0 1 0 1 empty empty empty 0 -8 0 10 -262144
-1 -1 0.2 256;
#X floatatom 568 399 5 0 0 0 - - -, f 5;
#X connect 0 0 6 0;
#X connect 2 0 1 0;
#X connect 3 0 2 1;
#X connect 4 0 2 0;
#X connect 5 0 3 1;
#X connect 5 0 4 1;
#X connect 6 0 4 0;
#X connect 6 0 3 0;
